{"title":"Mr Turner(2014)MPEG-4[DaScubaDude]","uid":14347885,"size":1499249081,"categoryP":"video","categoryS":"movies","magnet":"?xt=urn:btih:cfee4bc0bcb0f42a76891041d945824fe83ea933&amp;dn=Mr+Turner%282014%29MPEG-4%5BDaScubaDude%5D&amp;tr=udp%3A%2F%2Ftracker.leechers-paradise.org%3A6969&amp;tr=udp%3A%2F%2Fzer0day.ch%3A1337&amp;tr=udp%3A%2F%2Fopen.demonii.com%3A1337&amp;tr=udp%3A%2F%2Ftracker.coppersurfer.tk%3A6969&amp;tr=udp%3A%2F%2Fexodus.desync.com%3A6969","seeders":0,"leechers":0,"uploader":"dascuba","files":1,"time":1460999877,"description":"Mr. Turner (2014)\r\nR | 2h 30min | Biography, Drama, History | 31 October 2014 (UK)\r\nAn exploration of the last quarter century of the great, if eccentric, British painter J.M.W. Turner's life.\r\nDirector: Mike Leigh\r\nWriter: Mike Leigh\r\nStars: Timothy Spall, Paul Jesson, Dorothy Atkinson\r\n\r\n General\r\nComplete name                            : Mr TurnerMR_TURNER_Title1.mp4\r\nFormat                                   : MPEG-4\r\nFormat profile                           : Base Media\r\nCodec ID                                 : isom\r\nFile size                                : 1.40 GiB\r\nDuration                                 : 2h 30mn\r\nOverall bit rate                         : 1 332 Kbps\r\nMovie name                               : MR_TURNER\r\nGenre                                    : Drama\r\nWriting application                      : Lavf54.6.100\r\n\r\nVideo\r\nID                                       : 1\r\nFormat                                   : AVC\r\nFormat/Info                              : Advanced Video Codec\r\nFormat profile                           :   \r\nFormat settings, CABAC                   : No\r\nFormat settings, ReFrames                : 6 frames\r\nCodec ID                                 : avc1\r\nCodec ID/Info                            : Advanced Video Coding\r\nDuration                                 : 2h 30mn\r\nBit rate                                 : 1 198 Kbps\r\nWidth                                    : 720 pixels\r\nHeight                                   : 404 pixels\r\nDisplay aspect ratio                     : 16:9\r\nFrame rate mode                          : Constant\r\nFrame rate                               : 29.970 fps\r\nColor space                              : YUV\r\nChroma subsampling                       : 4:2:0\r\nBit depth                                : 8 bits\r\nScan type                                : Progressive\r\nBits/(Pixel*Frame)                       : 0.137\r\nStream size                              : 1.26 GiB (90%)\r\n\r\nAudio\r\nID                                       : 2\r\nFormat                                   : AAC\r\nFormat/Info                              : Advanced Audio Codec\r\nFormat profile                           : LC\r\nCodec ID                                 : 40\r\nDuration                                 : 2h 30mn\r\nBit rate mode                            : Constant\r\nBit rate                                 : 128 Kbps\r\nChannel(s)                               : 2 channels\r\nChannel positions                        : Front: L R\r\nSampling rate                            : 44.1 KHz\r\nCompression mode                         : Lossy\r\nStream size                              : 137 MiB (10%)","torrent":{"xt":"urn:btih:cfee4bc0bcb0f42a76891041d945824fe83ea933","amp;dn":"Mr+Turner%282014%29MPEG-4%5BDaScubaDude%5D","amp;tr":["udp%3A%2F%2Ftracker.leechers-paradise.org%3A6969","udp%3A%2F%2Fzer0day.ch%3A1337","udp%3A%2F%2Fopen.demonii.com%3A1337","udp%3A%2F%2Ftracker.coppersurfer.tk%3A6969","udp%3A%2F%2Fexodus.desync.com%3A6969"],"infoHash":"cfee4bc0bcb0f42a76891041d945824fe83ea933","infoHashBuffer":{"type":"Buffer","data":[207,238,75,192,188,176,244,42,118,137,16,65,217,69,130,79,232,62,169,51]},"announce":[],"urlList":[]}}